<?xml version="1.0" encoding="UTF-8"?>
<svg width="30px" height="26px" viewBox="0 0 30 26" version="1.1" xmlns="http://www.w3.org/2000/svg" xmlns:xlink="http://www.w3.org/1999/xlink">
    <!-- <title>全麦购logo</title>
    <defs>
        <linearGradient x1="60.5844703%" y1="-3.51835879%" x2="38.0742233%" y2="84.6244224%" id="linearGradient-1">
            <stop stop-color="#1E6CFF" offset="0%"></stop>
            <stop stop-color="#1FC0FF" offset="100%"></stop>
        </linearGradient>
    </defs> -->
    <g id="最终" stroke="none" stroke-width="1" fill="none" fill-rule="evenodd">
        <g id="3*帮助中心-搜索" transform="translate(-28.000000, -25.000000)">
            <g id="全麦购logo" transform="translate(28.000000, 22.000000)">
                <g id="编组-15">
                    <g transform="translate(0.000000, 3.000000)">
                        <g id="编组-32">
                            <path d="M9.59127717,0.700680213 C8.97374872,4.71755367 11.7643242,7.97387299 15.824202,7.97387299 C19.843481,7.97387299 23.6000042,4.78235442 24.27392,0.820955755 L24.2933952,0.700680213 L27.2501194,0.700680213 C28.6152777,0.700680213 29.7219572,1.80735969 29.7219572,3.172518 C29.7219572,3.29826316 29.712362,3.42382502 29.6932552,3.54811008 L26.8090443,22.3092054 C26.5633458,23.9074152 25.1882493,25.0872678 23.5712638,25.0872678 C22.2393831,25.0872678 21.1596805,24.0075651 21.1596805,22.6756845 C21.1596805,22.5529923 21.1690436,22.4304791 21.1876883,22.3092119 L22.9069802,11.1267606 L22.9069802,11.1267606 C20.96569,12.3722496 18.7627747,13.1971687 16.4724076,13.4519409 L15.6189805,12.4562367 C15.2901318,12.0725036 14.6656625,12.0725036 14.2188284,12.4562367 L13.1166454,13.4029401 C11.0590337,13.1019241 9.24162025,12.301351 7.77193425,11.1266967 L6.05305349,22.3091963 C5.80739046,23.907403 4.43230954,25.0872678 2.81533243,25.0872678 C1.48343136,25.0872678 0.403712201,24.0075486 0.403712201,22.6756475 C0.403712201,22.5529657 0.413073625,22.4304627 0.431714947,22.3092054 L3.43248452,2.78992383 C3.61749216,1.58653917 4.65122938,0.697079721 5.86874776,0.693694567 C8.34852915,0.686799853 9.58937228,0.689128402 9.59127717,0.700680213 Z" id="形状结合" fill="url(#linearGradient-1)"></path>
                            <path d="M15.339931,14.2713864 L17.7695483,17.106504 C18.1008892,17.4931453 18.0073581,18.1233704 17.5606406,18.5141511 C17.5577695,18.5166627 17.554887,18.519161 17.5519934,18.521646 L14.2506704,21.3567636 C13.8038363,21.7404968 13.179367,21.7404968 12.8505183,21.3567636 L10.420901,18.521646 C10.0895601,18.1350047 10.1830912,17.5047796 10.6298087,17.1139989 C10.6326798,17.1114873 10.6355622,17.108989 10.6384559,17.106504 L13.9397789,14.2713864 C14.386613,13.8876532 15.0110823,13.8876532 15.339931,14.2713864 Z" id="矩形" fill="#F7B500"></path>
                        </g>
                    </g>
                </g>
            </g>
        </g>
    </g>
</svg>